<?xml version="1.0" encoding="utf-8"?>
<!-- Generator: Adobe Illustrator 22.0.1, SVG Export Plug-In . SVG Version: 6.00 Build 0)  -->
<svg version="1.1" id="Layer_1" xmlns="http://www.w3.org/2000/svg" xmlns:xlink="http://www.w3.org/1999/xlink" x="0px" y="0px"
	 viewBox="0 0 116 57" style="enable-background:new 0 0 116 57;" xml:space="preserve">
<style type="text/css">
	.st0{fill:#E2D9AE;}
	.st1{fill:#A16E39;}
	.st2{fill:#EEE4B7;}
	.st3{fill:#ADA585;}
	.st4{fill:#C48647;}
	.st5{fill:#775129;}
</style>
<g transform="matrix( 1, 0, 0, 1, 0,0) ">
	<g>
		<g id="Layer0_119_FILL">
			<path class="st0" d="M13.5,45.9c0.1,0,0.3,0,0.4-0.1l2.9-1.5c-0.8-0.9-1.5-1.8-2.2-2.8L13,44.9C13,45,13,45.1,13,45.3
				c0,0.1,0,0.3,0.1,0.4C13.2,45.8,13.3,45.8,13.5,45.9 M33.2,51.5c-0.6,0-1.3,0-1.9-0.1l0.9,2.9c0,0.1,0.1,0.3,0.2,0.4
				c0.1,0.1,0.2,0.1,0.4,0.1c0.1,0,0.3,0,0.4-0.1c0.1-0.1,0.2-0.2,0.2-0.4l0.9-2.9C34,51.4,33.6,51.5,33.2,51.5 M49.6,44.1
				c-0.3,0.3-0.6,0.6-0.9,1c-0.5,0.5-1,0.9-1.5,1.4l2.9,1.4c0.1,0.1,0.3,0.1,0.4,0.1c0.1,0,0.3,0,0.4-0.1c0.1-0.1,0.1-0.2,0.2-0.5
				c0-0.1,0-0.3-0.1-0.4L49.6,44.1z"/>
			<path class="st1" d="M26.8,19.4c-0.5,1.3-0.9,2.5-1.1,3.8c-0.5,3-0.1,5.9,1.1,8.9c0.1,0.2,0.3,0.4,0.5,0.6c0.2,0.1,0.5,0.1,0.8,0
				c3.1-1,5.9-2.9,8.4-5.5c0-0.1,0.1-0.1,0.1-0.2c0.1-0.1,0.2-0.3,0.2-0.5v-5.8c0-0.2-0.1-0.4-0.2-0.6c-0.1-0.2-0.3-0.3-0.5-0.3
				c-2.8-1-5.7-1.3-8.4-0.9c-0.2,0-0.4,0.1-0.5,0.2C27,19.1,26.9,19.2,26.8,19.4 M15.3,16.7l-1.3-1.3c-1.6-1.6-3.3-1.6-4.9,0l-5.1,5
				c-1.6,1.6-1.6,3.1,0,4.7l5.1,5c0.7,0.7,1.5,1.1,2.2,1.2c0-0.6-0.1-1.2-0.1-1.9c0-1.3,0.1-2.5,0.3-3.7c0-0.1,0-0.2,0-0.3
				C12.2,22.3,13.4,19.4,15.3,16.7 M17.7,8.8c0,0.1,0,0.3,0.1,0.4l1.7,3.1c1-0.8,2.1-1.5,3.1-2.1l-3.8-2c-0.1-0.1-0.3-0.1-0.4,0
				c-0.1,0-0.3,0-0.4,0.1C17.8,8.4,17.8,8.6,17.7,8.8 M32.5,3.7c-0.2,0-0.3,0.1-0.4,0.2C32,4,31.9,4.1,31.8,4.2l-1.1,3.5
				c0.8-0.1,1.7-0.1,2.5-0.1c0.3,0,0.7,0,1,0l-1.1-3.3C33.1,4.1,33,4,32.9,3.9C32.7,3.8,32.6,3.7,32.5,3.7 M46,18.6
				c-0.5,0-0.9,0.2-1.2,0.6c-0.3,0.4-0.5,0.8-0.5,1.2c0,0.5,0.2,0.9,0.5,1.2c0.4,0.4,0.8,0.6,1.2,0.6c0.5,0,0.9-0.2,1.2-0.6
				c0.4-0.4,0.6-0.8,0.6-1.2c0-0.4-0.2-0.8-0.6-1.2C46.9,18.7,46.5,18.6,46,18.6 M48.4,9.2c0-0.1,0-0.3,0-0.4c0-0.2-0.1-0.3-0.2-0.5
				c-0.1-0.1-0.3-0.1-0.4-0.1c-0.2,0-0.3,0-0.5,0l-3.8,1.9c1.1,0.6,2.1,1.3,3.1,2.1L48.4,9.2z"/>
			<path class="st2" d="M55.1,29.5c0-0.9,0-1.8-0.2-2.7c-6.1,2.5-12.2,2.5-18.4,0.1c0,0.1-0.1,0.1-0.1,0.2c-2.5,2.6-5.3,4.5-8.4,5.5
				c-0.3,0.1-0.5,0.1-0.8,0c-0.2-0.1-0.4-0.3-0.5-0.6c-1.3-3-1.6-5.9-1.1-8.9c-1.8-0.2-3.6-0.3-5.5-0.1c-2.9,0.3-5.7,1.1-8.7,2.4
				c0,0.1,0,0.2,0,0.3c-0.2,1.2-0.3,2.4-0.3,3.7c0,0.6,0,1.2,0.1,1.9c0.1,0.7,0.2,1.5,0.2,2.1c0.5,2.9,1.6,5.6,3.2,8
				c0.6,0.9,1.4,1.9,2.2,2.8c0.3,0.3,0.5,0.5,0.8,0.8c3.8,3.8,8.4,6,13.7,6.4c0.6,0.1,1.3,0.1,1.9,0.1c0.4,0,0.8,0,1.2,0
				c4.9-0.2,9.1-1.9,12.8-5c0.5-0.4,1-0.9,1.5-1.4c0.3-0.3,0.6-0.6,0.9-1c3.2-3.5,5-7.6,5.5-12.2C55.1,31,55.1,30.3,55.1,29.5z"/>
			<path class="st3" d="M56.9,26.6c0-0.2,0-0.5-0.1-0.7L55,26.8c0.1,0.9,0.2,1.8,0.2,2.7c0,0.8,0,1.5-0.1,2.3
				c-0.5,4.6-2.3,8.7-5.5,12.2l1.5,2.9c0,0.1,0.1,0.3,0.1,0.4c0,0.2-0.1,0.4-0.2,0.5c-0.1,0.1-0.3,0.1-0.4,0.1c-0.2,0-0.3,0-0.4-0.1
				l-2.9-1.4c-3.7,3.1-7.9,4.8-12.8,5l-0.9,2.9c-0.1,0.1-0.2,0.3-0.2,0.4c-0.1,0.1-0.3,0.1-0.4,0.1c-0.2,0-0.3,0-0.4-0.1
				c-0.1-0.1-0.2-0.2-0.2-0.4l-0.9-2.9C26,51,21.5,48.9,17.6,45c-0.2-0.2-0.5-0.5-0.8-0.8l-2.9,1.5c-0.1,0-0.3,0.1-0.4,0.1
				c-0.2,0-0.4-0.1-0.5-0.2C13,45.6,13,45.4,13,45.3c0-0.2,0-0.3,0.1-0.4l1.7-3.4c-1.6-2.4-2.7-5.1-3.2-8L9.4,33
				c0.4,3.1,1.4,6,3,8.7L11.2,44l0,0c-0.2,0.4-0.3,0.7-0.3,1.2c-0.1,0.6,0.1,1.2,0.5,1.8c0.1,0.2,0.3,0.3,0.5,0.5
				c0.3,0.2,0.7,0.4,1.2,0.4c0.1,0,0.2,0.1,0.3,0.1c0.3,0,0.6,0,0.8-0.1c0.2,0,0.3-0.1,0.4-0.2l1.7-0.8c3.8,3.7,8.3,5.9,13.3,6.5
				l0.5,1.5c0.1,0.5,0.3,0.9,0.8,1.3c0.5,0.5,1.1,0.8,1.8,0.8c0.5,0,1.1-0.2,1.6-0.5c0.1-0.1,0.1-0.1,0.2-0.2
				c0.3-0.2,0.5-0.5,0.6-0.8c0-0.1,0.1-0.2,0.1-0.3l0.5-1.6c4.3-0.4,8.2-2,11.5-4.6l1.8,0.9c0.4,0.2,0.7,0.3,1.2,0.2
				c0.6,0.1,1.2,0,1.8-0.5c0.2-0.1,0.3-0.3,0.4-0.5c0.2-0.3,0.4-0.7,0.4-1.2c0-0.1,0.1-0.2,0.1-0.3c0-0.3,0-0.6-0.1-0.9
				c0-0.1-0.1-0.3-0.2-0.5L52,44.3c2.9-3.6,4.6-7.7,5.1-12.3v0c0.1-0.8,0.1-1.6,0.1-2.5C57.1,28.5,57.1,27.5,56.9,26.6z"/>
			<path class="st4" d="M46.8,12.3c-1-0.8-2-1.5-3.1-2.1c-1.4-0.8-2.9-1.4-4.6-1.9c-1.6-0.4-3.2-0.7-4.9-0.7c-0.3,0-0.7,0-1,0
				c-0.8,0-1.7,0-2.5,0.1c-2.9,0.3-5.6,1.2-8.1,2.5c-1.1,0.6-2.1,1.3-3.1,2.1c-0.6,0.5-1.2,1.1-1.8,1.7c-0.9,0.9-1.7,1.8-2.3,2.8
				c-1.9,2.6-3.1,5.6-3.7,8.8c2.9-1.3,5.8-2.1,8.7-2.4c1.8-0.2,3.7-0.1,5.5,0.1c0.2-1.2,0.6-2.5,1.1-3.8c0.1-0.2,0.2-0.3,0.3-0.4
				c0.1-0.1,0.3-0.2,0.5-0.2c2.8-0.4,5.6-0.1,8.4,0.9c0.2,0.1,0.4,0.2,0.5,0.3c0.1,0.2,0.2,0.4,0.2,0.6v5.8c0,0.2-0.1,0.4-0.2,0.5
				c6.2,2.4,12.3,2.4,18.4-0.1c-0.6-4.9-2.7-9.2-6.3-12.8C48.1,13.4,47.5,12.8,46.8,12.3 M44.8,19.1c0.4-0.4,0.8-0.6,1.2-0.6
				c0.5,0,0.9,0.2,1.2,0.6c0.4,0.4,0.6,0.8,0.6,1.2c0,0.5-0.2,0.9-0.6,1.2c-0.3,0.4-0.7,0.6-1.2,0.6c-0.5,0-0.9-0.2-1.2-0.6
				c-0.3-0.4-0.5-0.8-0.5-1.2C44.3,19.9,44.5,19.5,44.8,19.1z"/>
			<path class="st5" d="M50.2,10.1c0.1-0.1,0.2-0.3,0.2-0.4c0.1-0.3,0.1-0.6,0.1-0.9c0-0.1,0-0.2,0-0.3c-0.1-0.5-0.2-0.9-0.5-1.2
				c-0.1-0.2-0.3-0.4-0.4-0.5c-0.6-0.5-1.2-0.6-1.8-0.5c-0.4,0-0.8,0.1-1.2,0.3l0,0l-2.8,1.5c-1.3-0.6-2.7-1.2-4.1-1.5l0,0
				c-1.3-0.3-2.6-0.6-3.9-0.7l-0.7-2c0-0.1-0.1-0.2-0.1-0.3c-0.2-0.3-0.4-0.6-0.7-0.9c-0.1-0.1-0.2-0.2-0.4-0.3
				c-0.3-0.2-0.6-0.3-0.8-0.4c-0.3-0.1-0.7-0.1-1,0c-0.5,0.1-0.9,0.3-1.3,0.7c-0.3,0.2-0.5,0.5-0.8,0.9c0,0.1-0.1,0.2-0.1,0.2
				l-0.8,2.3c-2.3,0.4-4.6,1.1-6.7,2.1l-2.9-1.5l0,0c-0.4-0.2-0.7-0.3-1.2-0.3c-0.6-0.1-1.2,0.1-1.8,0.5c-0.2,0.1-0.4,0.3-0.5,0.5
				c-0.2,0.3-0.3,0.7-0.5,1.2c0,0.1,0,0.2,0,0.3c0,0.3,0,0.6,0.1,0.9c0,0.2,0.1,0.3,0.2,0.4l1,1.8c-0.2,0.2-0.5,0.4-0.7,0.6l0,0
				c-0.4,0.4-0.7,0.8-1.1,1.2c-2.5-2.3-5-2.2-7.4,0.2l-5.2,5c-1.3,1.3-1.9,2.5-1.8,3.8c-0.1,1.3,0.6,2.5,1.8,3.8l5.2,5.1
				c0.6,0.6,1.2,1,1.8,1.3v0l2.1,0.5c-0.1-0.7-0.2-1.4-0.2-2.1c-0.7,0-1.5-0.4-2.2-1.2l-5.1-5c-1.6-1.6-1.6-3.1,0-4.7l5.1-5
				c1.6-1.6,3.2-1.6,4.9,0l1.3,1.3c0.7-0.9,1.5-1.9,2.3-2.8c0.6-0.6,1.2-1.1,1.8-1.7l-1.7-3.1c0-0.1-0.1-0.3-0.1-0.4
				c0-0.2,0.1-0.3,0.2-0.5c0.1-0.1,0.3-0.1,0.4-0.1c0.2,0,0.3,0,0.4,0l3.8,2c2.5-1.4,5.2-2.2,8.1-2.5l1.1-3.5
				C31.9,4.1,32,4,32.1,3.9c0.1-0.1,0.2-0.2,0.4-0.2c0.1,0,0.2,0.1,0.4,0.2C33,4,33.1,4.1,33.1,4.2l1.1,3.3c1.7,0.1,3.4,0.3,4.9,0.7
				c1.6,0.4,3.1,1.1,4.6,1.9l3.8-1.9c0.1-0.1,0.3-0.1,0.5,0c0.1,0,0.3,0,0.4,0.1c0.1,0.1,0.1,0.3,0.2,0.5c0,0.1,0,0.3,0,0.4
				l-1.7,3.1c0.7,0.5,1.3,1.1,1.9,1.7c3.6,3.6,5.7,7.9,6.3,12.8l1.8-0.9c-0.7-5.1-2.9-9.5-6.8-13.4c-0.2-0.2-0.5-0.5-0.8-0.8
				L50.2,10.1z"/>
		</g>
	</g>
</g>
<g id="Layer0_119_FILL_1_">
	<path class="st0" d="M71.7,45.9c0.1,0,0.3,0,0.4-0.1l2.9-1.5c-0.8-0.9-1.5-1.8-2.2-2.8l-1.7,3.4c-0.1,0.1-0.1,0.3-0.1,0.4
		c0,0.1,0,0.3,0.1,0.4C71.3,45.8,71.5,45.8,71.7,45.9 M91.3,51.5c-0.6,0-1.3,0-1.9-0.1l0.9,2.9c0,0.1,0.1,0.3,0.2,0.4
		c0.1,0.1,0.2,0.1,0.4,0.1c0.1,0,0.3,0,0.4-0.1c0.1-0.1,0.2-0.2,0.2-0.4l0.9-2.9C92.1,51.4,91.7,51.5,91.3,51.5 M107.7,44.1
		c-0.3,0.3-0.6,0.6-0.9,1c-0.5,0.5-1,0.9-1.5,1.4l2.9,1.4c0.1,0.1,0.3,0.1,0.4,0.1c0.1,0,0.3,0,0.4-0.1c0.1-0.1,0.1-0.2,0.2-0.5
		c0-0.1,0-0.3-0.1-0.4L107.7,44.1z"/>
	<path class="st1" d="M73.4,16.7l-1.3-1.3c-1.6-1.6-3.3-1.6-4.9,0l-5.1,5c-1.6,1.6-1.6,3.1,0,4.7l5.1,5c0.7,0.7,1.5,1.1,2.2,1.2
		c0-0.6-0.1-1.2-0.1-1.9c0-1.3,0.1-2.5,0.3-3.7c0-0.1,0-0.2,0-0.3C70.3,22.3,71.5,19.4,73.4,16.7"/>
	<path class="st1" d="M75.9,8.8c0,0.1,0,0.3,0.1,0.4l1.7,3.1c1-0.8,2.1-1.5,3.1-2.1l-3.8-2c-0.1-0.1-0.3-0.1-0.4,0
		c-0.1,0-0.3,0-0.4,0.1C75.9,8.4,75.9,8.6,75.9,8.8"/>
	<path class="st1" d="M90.6,3.7c-0.2,0-0.3,0.1-0.4,0.2C90.1,4,90,4.1,90,4.2l-1.1,3.5c0.8-0.1,1.7-0.1,2.5-0.1c0.3,0,0.7,0,1,0
		l-1.1-3.3C91.2,4.1,91.1,4,91,3.9C90.8,3.8,90.7,3.7,90.6,3.7"/>
	<path class="st1" d="M104.2,18.6c-0.5,0-0.9,0.2-1.2,0.6c-0.3,0.4-0.5,0.8-0.5,1.2c0,0.5,0.2,0.9,0.5,1.2c0.4,0.4,0.8,0.6,1.2,0.6
		c0.5,0,0.9-0.2,1.2-0.6c0.4-0.4,0.6-0.8,0.6-1.2c0-0.4-0.2-0.8-0.6-1.2C105.1,18.7,104.7,18.6,104.2,18.6"/>
	<path class="st1" d="M106.6,9.2c0-0.1,0-0.3,0-0.4c0-0.2-0.1-0.3-0.2-0.5c-0.1-0.1-0.3-0.1-0.4-0.1c-0.2,0-0.3,0-0.5,0l-3.8,1.9
		c1.1,0.6,2.1,1.3,3.1,2.1L106.6,9.2z"/>
	<path class="st2" d="M83.8,23.1c-1.8-0.2-3.6-0.3-5.5-0.1c-2.9,0.3-5.7,1.1-8.7,2.4c0,0.1,0,0.2,0,0.3c-0.2,1.2-0.3,2.4-0.3,3.7
		c0,0.6,0,1.2,0.1,1.9c0.1,0.7,0.2,1.5,0.2,2.1c0.5,2.9,1.6,5.6,3.2,8c0.6,0.9,1.4,1.9,2.2,2.8c0.3,0.3,0.5,0.5,0.8,0.8
		c3.8,3.8,8.4,6,13.7,6.4c0.6,0.1,1.3,0.1,1.9,0.1c0.4,0,0.8,0,1.2,0c4.9-0.2,9.1-1.9,12.8-5c0.5-0.4,1-0.9,1.5-1.4
		c0.3-0.3,0.6-0.6,0.9-1c3.2-3.5,5-7.6,5.5-12.2c0.1-0.8,0.1-1.5,0.1-2.3c0-0.9,0-1.8-0.2-2.7c-6.1,2.5-12.2,2.5-18.4,0.1"/>
	<path class="st3" d="M115.1,26.6c0-0.2,0-0.5-0.1-0.7l-1.8,0.9c0.1,0.9,0.2,1.8,0.2,2.7c0,0.8,0,1.5-0.1,2.3
		c-0.5,4.6-2.3,8.7-5.5,12.2l1.5,2.9c0,0.1,0.1,0.3,0.1,0.4c0,0.2-0.1,0.4-0.2,0.5c-0.1,0.1-0.3,0.1-0.4,0.1c-0.2,0-0.3,0-0.4-0.1
		l-2.9-1.4c-3.7,3.1-7.9,4.8-12.8,5l-0.9,2.9c-0.1,0.1-0.2,0.3-0.2,0.4c-0.1,0.1-0.3,0.1-0.4,0.1c-0.2,0-0.3,0-0.4-0.1
		c-0.1-0.1-0.2-0.2-0.2-0.4l-0.9-2.9c-5.3-0.4-9.8-2.5-13.7-6.4c-0.2-0.2-0.5-0.5-0.8-0.8l-2.9,1.5c-0.1,0-0.3,0.1-0.4,0.1
		c-0.2,0-0.4-0.1-0.5-0.2c-0.1-0.1-0.1-0.3-0.1-0.4c0-0.2,0-0.3,0.1-0.4l1.7-3.4c-1.6-2.4-2.7-5.1-3.2-8L67.6,33
		c0.4,3.1,1.4,6,3,8.7L69.4,44l0,0c-0.2,0.4-0.3,0.7-0.3,1.2c-0.1,0.6,0.1,1.2,0.5,1.8c0.1,0.2,0.3,0.3,0.5,0.5
		c0.3,0.2,0.7,0.4,1.2,0.4c0.1,0,0.2,0.1,0.3,0.1c0.3,0,0.6,0,0.8-0.1c0.2,0,0.3-0.1,0.4-0.2l1.7-0.8c3.8,3.7,8.3,5.9,13.3,6.5
		l0.5,1.5c0.1,0.5,0.3,0.9,0.8,1.3c0.5,0.5,1.1,0.8,1.8,0.8c0.5,0,1.1-0.2,1.6-0.5c0.1-0.1,0.1-0.1,0.2-0.2c0.3-0.2,0.5-0.5,0.6-0.8
		c0-0.1,0.1-0.2,0.1-0.3l0.5-1.6c4.3-0.4,8.2-2,11.5-4.6l1.8,0.9c0.4,0.2,0.7,0.3,1.2,0.2c0.6,0.1,1.2,0,1.8-0.5
		c0.2-0.1,0.3-0.3,0.4-0.5c0.2-0.3,0.4-0.7,0.4-1.2c0-0.1,0.1-0.2,0.1-0.3c0-0.3,0-0.6-0.1-0.9c0-0.1-0.1-0.3-0.2-0.5l-0.8-1.7
		c2.9-3.6,4.6-7.7,5.1-12.3v0c0.1-0.8,0.1-1.6,0.1-2.5C115.3,28.5,115.2,27.5,115.1,26.6z"/>
	<path class="st4" d="M83.8,23.2c6.2,2.4,18.6,8.7,29.3,3.6c-0.6-4.9-2.7-9.2-6.3-12.8c-0.6-0.6-1.2-1.2-1.9-1.7 M104.9,12.3
		c-1-0.8-2-1.5-3.1-2.1c-1.4-0.8-2.9-1.4-4.6-1.9c-1.6-0.4-3.2-0.7-4.9-0.7c-0.3,0-0.7,0-1,0c-0.8,0-1.7,0-2.5,0.1
		c-2.9,0.3-5.6,1.2-8.1,2.5c-1.1,0.6-2.1,1.3-3.1,2.1c-0.6,0.5-1.2,1.1-1.8,1.7c-0.9,0.9-1.7,1.8-2.3,2.8c-1.9,2.6-3.1,5.6-3.7,8.8
		c2.9-1.3,5.8-2.1,8.7-2.4c1.8-0.2,3.7-0.1,5.5,0.1 M102.5,19.8c0.4-0.4,0,0.7,0.4,1c0.4,0.4,1.5,0.5,2.4,0.2
		c0.7-0.1,0.7-1.2,0.7-0.7c0,0.5-0.2,0.9-0.6,1.2c-0.3,0.4-0.7,0.6-1.2,0.6c-0.5,0-0.9-0.2-1.2-0.6c-0.3-0.4-0.5-0.8-0.5-1.2
		C102.4,19.9,102.4,20.2,102.5,19.8z"/>
	<path class="st1" d="M95.7,22.8c0.5-1.3,0.9-2.5,1.1-3.8c0.5-3,0.1-5.9-1.1-8.9c-0.1-0.2-0.3-0.4-0.5-0.6c-0.2-0.1-0.5-0.1-0.8,0
		c-3.1,1-5.9,2.9-8.4,5.5c0,0.1-0.1,0.1-0.1,0.2c-0.1,0.1-0.2,0.3-0.2,0.5v5.8c0,0.2,0.1,0.4,0.2,0.6c0.1,0.2,0.3,0.3,0.5,0.3
		c2.8,1,5.7,1.3,8.4,0.9c0.2,0,0.4-0.1,0.5-0.2C95.5,23.1,95.6,22.9,95.7,22.8"/>
	<path class="st5" d="M108.3,10.1c0.1-0.1,0.2-0.3,0.2-0.4c0.1-0.3,0.1-0.6,0.1-0.9c0-0.1,0-0.2,0-0.3c-0.1-0.5-0.2-0.9-0.5-1.2
		c-0.1-0.2-0.3-0.4-0.4-0.5c-0.6-0.5-1.2-0.6-1.8-0.5c-0.4,0-0.8,0.1-1.2,0.3l0,0l-2.8,1.5c-1.3-0.6-2.7-1.2-4.1-1.5l0,0
		c-1.3-0.3-2.6-0.6-3.9-0.7l-0.7-2c0-0.1-0.1-0.2-0.1-0.3c-0.2-0.3-0.4-0.6-0.7-0.9c-0.1-0.1-0.2-0.2-0.4-0.3
		c-0.3-0.2-0.6-0.3-0.8-0.4c-0.3-0.1-0.7-0.1-1,0c-0.5,0.1-0.9,0.3-1.3,0.7c-0.3,0.2-0.5,0.5-0.8,0.9c0,0.1-0.1,0.2-0.1,0.2
		l-0.8,2.3C85,6.2,82.7,6.9,80.7,8l-2.9-1.5l0,0c-0.4-0.2-0.7-0.3-1.2-0.3c-0.6-0.1-1.2,0.1-1.8,0.5c-0.2,0.1-0.4,0.3-0.5,0.5
		c-0.2,0.3-0.3,0.7-0.5,1.2c0,0.1,0,0.2,0,0.3c0,0.3,0,0.6,0.1,0.9c0,0.2,0.1,0.3,0.2,0.4l1,1.8c-0.2,0.2-0.5,0.4-0.7,0.6l0,0
		c-0.4,0.4-0.7,0.8-1.1,1.2c-2.5-2.3-5-2.2-7.4,0.2l-4,5.2c-1.3,1.3-1.3,2.4-1.2,3.7c-0.1,1.3,0.1,2.3,1.3,3.6l3.9,5.2
		c0.6,0.6,1.2,1,1.8,1.3v0l2.1,0.5c-0.1-0.7-0.2-1.4-0.2-2.1c-0.7,0-1.5-0.4-2.2-1.2l-5.1-5c-0.1-1.8-0.3-3.3,0-4.7l5.1-5.1
		c1.6-1.6,3.2-1.6,4.9,0l1.3,1.3c0.7-0.9,1.5-1.9,2.3-2.8c0.6-0.6,1.2-1.1,1.8-1.7l-1.7-3.1c0-0.1-0.1-0.3-0.1-0.4
		c0-0.2,0.1-0.3,0.2-0.5c0.1-0.1,0.3-0.1,0.4-0.1c0.2,0,0.3,0,0.4,0l3.8,2c2.5-1.4,5.2-2.2,8.1-2.5L90,4.2C90,4.1,90.1,4,90.2,3.9
		c0.1-0.1,0.2-0.2,0.4-0.2c0.1,0,0.2,0.1,0.4,0.2c0.1,0.1,0.2,0.2,0.2,0.3l1.1,3.3c1.7,0.1,3.4,0.3,4.9,0.7c1.6,0.4,3.1,1.1,4.6,1.9
		l3.8-1.9c0.1-0.1,0.3-0.1,0.5,0c0.1,0,0.3,0,0.4,0.1c0.1,0.1,0.1,0.3,0.2,0.5c0,0.1,0,0.3,0,0.4l-1.7,3.1c0.7,0.5,1.3,1.1,1.9,1.7
		c3.6,3.6,5.7,7.9,6.3,12.8l1.8-0.9c-0.7-5.1-2.9-9.5-6.8-13.4c-0.2-0.2-0.5-0.5-0.8-0.8L108.3,10.1z"/>
</g>
</svg>
