<?xml version="1.0" encoding="utf-8"?>
<!-- Generator: Adobe Illustrator 22.0.1, SVG Export Plug-In . SVG Version: 6.00 Build 0)  -->
<svg version="1.1" xmlns="http://www.w3.org/2000/svg" xmlns:xlink="http://www.w3.org/1999/xlink" x="0px" y="0px"
	 viewBox="0 0 1024 1024" style="enable-background:new 0 0 1024 1024;" xml:space="preserve">
<style type="text/css">
	.st0{fill:#29ABE2;}
	.st1{fill:#E2D9AE;}
	.st2{fill:#A16E39;}
	.st3{fill:#EEE4B7;}
	.st4{fill:#ADA585;}
	.st5{fill:#C48647;}
	.st6{fill:#775129;}
</style>
<g id="Background">
	<rect x="0" y="0" class="st0" width="1024" height="1024"/>
</g>
<g id="Layer_1">
	<g transform="matrix( 1, 0, 0, 1, 0,0) ">
		<g>
			<g id="Layer0_119_FILL">
				<path class="st1" d="M377.5,601.7c1,0,2-0.1,3-0.4l22-11.8c-5.9-6.7-11.3-13.7-16-21l-12.7,25.6c-0.5,1-0.6,2.2-0.4,3.4
					c-0.2,1,0,2,0.7,3.1C374.9,601.1,376,601.5,377.5,601.7 M524,644.4c-4.8,0-9.5-0.3-14.2-0.8l7.1,22.5c0.2,1,0.9,1.9,1.9,2.7
					c0.7,0.8,1.7,1.1,3,1.1c1,0,2-0.4,3-1.1c0.7-0.8,1.4-1.7,1.9-2.7l6.7-22.1C530.3,644.3,527.2,644.4,524,644.4 M646.3,588
					c-2.1,2.4-4.4,4.9-6.7,7.2c-3.5,3.6-7.1,7-10.8,10.3l21.6,11.1c1,0.5,2.1,0.6,3.4,0.4c1,0.3,2,0,3-0.8c0.5-0.8,0.9-1.9,1.1-3.4
					c0-1-0.1-2-0.4-3.1L646.3,588z"/>
				<path class="st2" d="M476.7,399.9c-4,9.6-6.9,19.1-8.6,28.6c-3.7,22.6-0.8,45.3,8.6,67.9c0.7,1.8,2,3.2,3.7,4.2
					c1.7,0.8,3.6,0.8,5.6,0c23.1-7.9,44-21.9,62.6-42c0.4-0.4,0.6-0.9,0.7-1.5c0.7-1.1,1.1-2.4,1.1-3.8v-43.9c0-1.8-0.4-3.3-1.1-4.6
					c-1-1.3-2.2-2.2-3.7-2.7c-21.1-7.6-42.1-9.9-63-6.9c-1.5,0-2.7,0.5-3.7,1.5C477.9,397.6,477.2,398.6,476.7,399.9 M390.6,379.3
					l-10.1-9.9c-12.2-12-24.2-12-36.2,0l-38.4,38.5c-12.2,12-12.2,23.9,0,35.9l38.4,38.5c5.5,5.5,11,8.4,16.4,8.8
					c-0.2-4.6-0.4-9.3-0.4-14.1c0-9.9,0.7-19.3,2.2-28.2c0-1,0.1-1.9,0.4-2.7C367.2,421.7,376.3,399.4,390.6,379.3 M408.8,318.6
					c0,1,0.1,2,0.4,3.1l12.3,24c7.6-6.1,15.4-11.4,23.5-16l-28.7-14.9c-1-0.5-2.1-0.6-3.4-0.4c-1-0.3-2,0-3,0.8
					C409.4,315.9,409.1,317.1,408.8,318.6 M518.8,279.7c-1.2,0.3-2.2,0.9-3,1.9c-0.7,0.5-1.4,1.3-1.9,2.3l-8.6,26.3
					c6.1-0.5,12.3-0.8,18.6-0.8c2.6,0,5,0,7.5,0l-7.8-25.6c-0.5-1-1.1-1.9-1.9-2.7C520.5,280.4,519.5,279.9,518.8,279.7
					 M619.8,393.4c-3.5,0-6.6,1.4-9.3,4.2c-2.5,2.8-3.7,5.9-3.7,9.2c0,3.6,1.2,6.7,3.7,9.5c2.7,2.8,5.8,4.2,9.3,4.2
					c3.7,0,6.7-1.4,8.9-4.2c3-2.8,4.5-6,4.5-9.5c0-3.3-1.5-6.4-4.5-9.2C626.5,394.8,623.5,393.4,619.8,393.4 M637.7,321.6
					c0.2-1,0.4-2,0.4-3.1c-0.2-1.5-0.6-2.7-1.1-3.4c-1-0.8-2-1-3-0.8c-1.2-0.3-2.4-0.1-3.4,0.4l-28.3,14.5c8.1,4.6,15.8,9.9,23.1,16
					L637.7,321.6z"/>
				<path class="st3" d="M687.6,476.9c0-7.1-0.4-14-1.1-20.6c-45.5,18.8-91.2,19-137.2,0.8c-0.1,0.6-0.4,1.1-0.7,1.5
					c-18.6,20.1-39.5,34.1-62.6,42c-2,0.8-3.9,0.8-5.6,0c-1.7-1-3-2.4-3.7-4.2c-9.4-22.7-12.3-45.3-8.6-67.9
					c-13.4-1.7-26.9-2-40.6-0.8c-21.3,2.2-42.8,8.3-64.5,18.3c-0.2,0.8-0.4,1.7-0.4,2.7c-1.5,8.9-2.2,18.3-2.2,28.2
					c0,4.8,0.1,9.5,0.4,14.1c0.5,5.7,1.2,11.1,1.9,16.4c3.9,22.1,11.8,42.5,23.9,61.1c4.8,7.2,10.1,14.2,16,21
					c1.9,1.9,3.7,3.8,5.6,5.7c28.7,29.3,62.6,45.5,101.8,48.5c4.6,0.5,9.4,0.8,14.2,0.8c3.2,0,6.3-0.1,9.3-0.4
					c36.4-1.8,68.2-14.6,95.4-38.5c3.7-3.3,7.3-6.7,10.8-10.3c2.3-2.4,4.6-4.8,6.7-7.2c23.7-26.9,37.2-58.1,40.6-93.5
					C687.4,488.6,687.6,482.8,687.6,476.9z"/>
				<path class="st4" d="M701.1,454.4c-0.1-1.7-0.3-3.5-0.7-5.3l-13.8,7.2c0.7,6.6,1.1,13.5,1.1,20.6c0,5.9-0.2,11.7-0.7,17.6
					c-3.4,35.4-17,66.6-40.6,93.5l11.2,21.7c0.2,1,0.4,2,0.4,3.1c-0.2,1.5-0.6,2.7-1.1,3.4c-1,0.8-2,1-3,0.8
					c-1.2,0.3-2.4,0.1-3.4-0.4l-21.6-11.1c-27.2,23.9-59.1,36.8-95.4,38.5l-6.7,22.1c-0.5,1-1.1,1.9-1.9,2.7c-1,0.8-2,1.1-3,1.1
					c-1.2,0-2.2-0.4-3-1.1c-1-0.8-1.6-1.7-1.9-2.7l-7.1-22.5c-39.2-3-73.1-19.1-101.8-48.5c-1.9-1.9-3.7-3.8-5.6-5.7l-22,11.8
					c-1,0.3-2,0.4-3,0.4c-1.5-0.3-2.6-0.6-3.4-1.1c-0.7-1-1-2-0.7-3.1c-0.2-1.3-0.1-2.4,0.4-3.4l12.7-25.6
					c-12-18.6-20-38.9-23.9-61.1l-15.7-4.2c3.2,23.9,10.7,45.9,22.4,66l-8.9,17.9l0,0c-1.4,2.7-2.1,5.6-2.2,8.8
					c-0.6,4.6,0.7,9.2,4.1,13.7c1.1,1.4,2.3,2.6,3.7,3.4c2,1.7,5,2.9,8.9,3.4c1,0.3,1.8,0.4,2.6,0.4c2.2,0,4.3-0.2,6.3-0.8
					c1.3-0.3,2.4-0.8,3.4-1.5l12.3-6.5c28.5,28.2,61.5,44.8,99.2,49.6l3.7,11.8c0.7,3.9,2.6,7.2,5.6,9.9c3.5,3.8,8.1,5.8,13.8,5.7
					c4,0.2,8-1.2,11.9-4.2c0.6-0.4,1.1-0.9,1.5-1.5c2-1.8,3.6-3.9,4.8-6.5c0.3-0.8,0.6-1.5,0.7-2.3l3.7-12.2
					c32.1-3.4,60.8-15.1,86.1-35.1l13,6.9c2.6,1.4,5.5,2,8.6,1.9c4.5,0.9,9-0.4,13.4-3.8c1.4-1.1,2.5-2.4,3.4-3.8
					c1.7-2,2.8-5.2,3.4-9.5c0.3-0.7,0.4-1.5,0.4-2.3c0-2.2-0.2-4.5-0.7-6.9c-0.3-1.1-0.8-2.2-1.5-3.4l-6.3-12.6
					c21.7-27.4,34.2-58.7,37.6-93.9v-0.4c0.5-6.2,0.8-12.4,0.7-18.7C702.5,469.2,702,461.7,701.1,454.4z"/>
				<path class="st5" d="M625.4,345.3c-7.3-6.1-15-11.4-23.1-16c-10.7-6.1-22-10.8-33.9-14.1c-11.8-3.2-24.1-5.1-36.9-5.7
					c-2.4,0-4.9,0-7.5,0c-6.3,0-12.5,0.3-18.6,0.8c-21.8,2.4-41.9,8.9-60.4,19.5c-8.1,4.6-15.9,10-23.5,16c-4.6,3.9-9,8.1-13.4,12.6
					c-6.5,6.8-12.4,13.8-17.5,21c-14.2,20.1-23.4,42.4-27.6,66.8c21.7-10,43.1-16.1,64.5-18.3c13.7-1.2,27.2-1,40.6,0.8
					c1.7-9.5,4.6-19,8.6-28.6c0.5-1.3,1.2-2.3,2.2-3.1c1-1,2.2-1.5,3.7-1.5c20.9-3.1,41.9-0.8,63,6.9c1.5,0.5,2.7,1.4,3.7,2.7
					c0.7,1.3,1.1,2.8,1.1,4.6v43.9c0,1.5-0.4,2.7-1.1,3.8c46,18.2,91.7,18,137.2-0.8c-4.2-37.6-19.9-70.3-47-98.1
					C635,353.6,630.3,349.3,625.4,345.3 M610.5,397.6c2.7-2.8,5.8-4.2,9.3-4.2c3.7,0,6.7,1.4,8.9,4.2c3,2.8,4.5,5.9,4.5,9.2
					c0,3.6-1.5,6.7-4.5,9.5c-2.2,2.8-5.2,4.2-8.9,4.2c-3.5,0-6.6-1.4-9.3-4.2c-2.5-2.8-3.7-6-3.7-9.5
					C606.7,403.4,608,400.4,610.5,397.6z"/>
				<path class="st6" d="M650.7,328.5c0.7-1,1.2-2.1,1.5-3.4c0.5-2.1,0.8-4.3,0.7-6.5c0-0.8-0.1-1.7-0.4-2.7
					c-0.5-4.1-1.7-7.1-3.4-9.2c-0.9-1.5-2-2.7-3.4-3.8c-4.4-3.4-8.9-4.8-13.4-4.2c-3.1,0.1-5.9,0.9-8.6,2.3l0,0l-21.2,11.1
					c-9.7-4.8-19.9-8.8-30.6-11.8l0,0c-9.5-2.5-19.4-4.2-29.4-5.3l-4.8-15.6c-0.2-0.8-0.4-1.5-0.7-2.3c-1.2-2.5-2.9-4.8-4.8-6.9
					c-0.8-0.8-1.8-1.5-3-2.3c-2.3-1.4-4.3-2.3-6-2.7c-2.4-0.8-4.9-0.9-7.5-0.4c-3.8,0.8-7,2.4-9.7,5c-2.2,1.8-4.1,4.2-5.6,7.2
					c-0.3,0.7-0.5,1.3-0.7,1.9l-5.6,17.6c-17.5,2.8-34,8.1-49.6,16L423,301l0,0c-2.6-1.4-5.5-2.2-8.6-2.3c-4.5-0.6-9,0.8-13.4,4.2
					c-1.4,1.1-2.6,2.4-3.7,3.8c-1.4,2-2.6,5.1-3.4,9.2c0,1,0,1.9,0,2.7c0,2.2,0.2,4.4,0.7,6.5c0.3,1.3,0.7,2.4,1.1,3.4l7.1,13.7
					c-1.7,1.7-3.5,3.3-5.2,5l-0.4,0.4c-2.8,3-5.5,6-8.2,9.2c-18.6-17.2-36.9-16.7-55.2,1.5l-38.4,38.5c-9.6,9.6-14.2,19.3-13.8,29
					c-0.4,9.7,4.2,19.3,13.8,28.6l38.4,38.5c4.4,4.5,8.7,7.8,13,9.9v0.4l15.7,4.2c-0.7-5.3-1.3-10.7-1.9-16.4
					c-5.4-0.3-10.9-3.3-16.4-8.8l-38.4-38.5c-12.2-12-12.2-23.9,0-35.9l38.4-38.5c11.9-12,24-12,36.2,0l10.1,9.9
					c5.1-7.2,11-14.2,17.5-21c4.4-4.4,8.9-8.6,13.4-12.6l-12.3-24c-0.2-1-0.4-2-0.4-3.1c0.2-1.5,0.6-2.7,1.1-3.4c1-0.8,2-1,3-0.8
					c1.2-0.3,2.4-0.1,3.4,0.4l28.7,14.9c18.5-10.6,38.6-17,60.4-19.5l8.6-26.3c0.5-1,1.1-1.8,1.9-2.3c0.7-1,1.7-1.7,3-1.9
					c0.7,0.3,1.7,0.8,3,1.5c0.7,0.8,1.4,1.7,1.9,2.7l7.8,25.6c12.8,0.6,25.1,2.5,36.9,5.7c12,3.3,23.3,8,33.9,14.1l28.3-14.5
					c1-0.5,2.1-0.6,3.4-0.4c1-0.3,2,0,3,0.8c0.5,0.8,0.9,1.9,1.1,3.4c0,1-0.1,2-0.4,3.1l-12.3,23.7c4.9,4,9.6,8.3,14.2,13
					c27.1,27.7,42.7,60.4,47,98.1l13.8-7.2c-5.2-38.8-22-72.8-50.3-101.9c-1.8-1.8-3.8-3.8-6-5.7L650.7,328.5z"/>
			</g>
		</g>
	</g>
</g>
</svg>
