<?xml version="1.0" encoding="utf-8"?>
<!-- Generator: Adobe Illustrator 22.0.1, SVG Export Plug-In . SVG Version: 6.00 Build 0)  -->
<svg version="1.1" id="Layer_1" xmlns="http://www.w3.org/2000/svg" xmlns:xlink="http://www.w3.org/1999/xlink" x="0px" y="0px"
	 viewBox="0 0 900.2 900.1" style="enable-background:new 0 0 900.2 900.1;" xml:space="preserve">
<style type="text/css">
	.st0{fill:#A16E39;}
	.st1{fill:#E2D9AE;}
	.st2{fill:#EEE4B7;}
	.st3{fill:#ADA585;}
	.st4{fill:#C48647;}
</style>
<path class="st0" d="M232.6,245.6l-21.5-21.2c-26-25.6-51.8-25.6-77.3,0l-82.1,82.4c-26,25.6-26,51.1,0,76.7l82.1,82.4
	c11.7,11.8,23.4,18,35.1,18.8c-0.5-9.8-0.8-19.9-0.8-30.2c0-21.2,1.6-41.3,4.8-60.4c0-2.2,0.3-4.1,0.8-5.7
	C182.6,336.3,202.2,288.7,232.6,245.6"/>
<path class="st1" d="M205.1,721.4c2.1,0,4.3-0.3,6.4-0.8l47-25.3c-12.7-14.4-24.1-29.4-34.3-44.9l-27.1,54.7
	c-1.1,2.2-1.3,4.6-0.8,7.3c-0.5,2.2,0,4.4,1.6,6.5C199.5,720,201.9,720.8,205.1,721.4"/>
<path class="st1" d="M518.4,812.7c-10.3,0-20.4-0.5-30.3-1.6l15.1,48.1c0.5,2.2,1.9,4.1,4,5.7c1.6,1.6,3.7,2.4,6.4,2.4
	c2.1,0,4.3-0.8,6.4-2.4c1.6-1.6,2.9-3.5,4-5.7l14.3-47.3C531.8,812.5,525.1,812.7,518.4,812.7"/>
<path class="st1" d="M779.8,692c-4.6,5.2-9.4,10.4-14.3,15.5c-7.5,7.7-15.2,15-23.1,22l46.2,23.7c2.1,1.1,4.5,1.4,7.2,0.8
	c2.1,0.5,4.3,0,6.4-1.6c1.1-1.6,1.9-4.1,2.4-7.3c0-2.2-0.3-4.4-0.8-6.5L779.8,692z"/>
<path class="st0" d="M272.1,115.9c0,2.2,0.3,4.4,0.8,6.5l26.3,51.4c16.2-13,32.9-24.4,50.2-34.3L288,107.7c-2.1-1.1-4.5-1.4-7.2-0.8
	c-2.1-0.5-4.3,0-6.4,1.6C273.4,110.2,272.6,112.6,272.1,115.9"/>
<path class="st0" d="M507.2,32.7c-2.7,0.5-4.8,1.9-6.4,4.1c-1.6,1.1-2.9,2.7-4,4.9L478.5,98c13.1-1.1,26.4-1.6,39.9-1.6
	c5.5,0,10.8,0,15.9,0l-16.7-54.7c-1.1-2.2-2.4-4.1-4-5.7C510.9,34.3,508.8,33.2,507.2,32.7"/>
<path class="st0" d="M761.5,122.4c0.5-2.2,0.8-4.4,0.8-6.5c-0.5-3.3-1.3-5.7-2.4-7.3c-2.1-1.6-4.3-2.2-6.4-1.6
	c-2.7-0.5-5-0.3-7.2,0.8l-60.6,31c17.4,9.8,33.9,21.2,49.4,34.3L761.5,122.4z"/>
<path class="st2" d="M398.8,350.9c-28.7-3.7-57.6-4.2-86.9-1.6c-45.6,4.8-91.6,17.8-137.9,39.2c-0.5,1.6-0.8,3.5-0.8,5.7
	c-3.2,19-4.8,39.2-4.8,60.4c0,10.3,0.3,20.4,0.8,30.2c1.1,12.1,2.5,23.8,4,35.1c8.3,47.4,25.3,90.9,51,130.6
	c10.2,15.5,21.6,30.4,34.3,44.9c4,4.1,8,8.2,12,12.2c61.3,62.7,133.8,97.3,217.6,103.6c9.9,1.1,20,1.6,30.3,1.6
	c6.7,0,13.4-0.3,19.9-0.8c77.8-3.8,145.8-31.3,204.1-82.4c7.9-7,15.6-14.3,23.1-22c5-5.1,9.8-10.3,14.3-15.5
	c50.6-57.5,79.6-124.2,86.9-199.9c1.1-12.6,1.6-25.2,1.6-37.7c0-15.2-0.8-29.9-2.4-44.1"/>
<path class="st3" d="M897,406.4c-0.2-3.6-0.7-7.4-1.6-11.4l-29.5,15.5c1.6,14.1,2.4,28.8,2.4,44.1c0,12.5-0.5,25-1.6,37.5
	c-7.3,75.8-36.3,142.4-86.9,199.9l23.9,46.5c0.5,2.2,0.8,4.4,0.8,6.5c-0.5,3.3-1.3,5.7-2.4,7.3c-2.1,1.6-4.3,2.2-6.4,1.6
	c-2.7,0.5-5,0.3-7.2-0.8l-46.2-23.7C684,780.5,616,808,538.2,811.8l-14.3,47.3c-1.1,2.2-2.4,4.1-4,5.7c-2.1,1.6-4.3,2.4-6.4,2.4
	c-2.7,0-4.8-0.8-6.4-2.4c-2.1-1.6-3.5-3.5-4-5.7l-15-48c-83.8-6.4-156.3-40.9-217.6-103.6c-4-4.1-8-8.2-12-12.2l-47,25.3
	c-2.1,0.5-4.3,0.8-6.4,0.8c-3.2-0.5-5.6-1.4-7.2-2.4c-1.6-2.2-2.1-4.4-1.6-6.5c-0.5-2.7-0.3-5.2,0.8-7.3l27.1-54.7
	c-25.7-39.7-42.7-83.2-51-130.6l-33.5-9c6.9,51.1,22.8,98.1,47.8,141.2l-19.1,38.4l0,0c-2.9,5.8-4.5,12-4.8,18.8
	c-1.3,9.9,1.6,19.7,8.8,29.4c2.3,3,4.9,5.5,8,7.3c4.2,3.7,10.6,6.2,19.1,7.3c2,0.6,3.9,0.8,5.6,0.8c4.7,0.1,9.2-0.5,13.6-1.6
	c2.8-0.7,5.1-1.8,7.2-3.3l26.3-13.9c60.9,60.4,131.6,95.7,212,106.1l8,25.3c1.6,8.3,5.6,15.4,12,21.2c7.4,8.2,17.3,12.3,29.5,12.2
	c8.6,0.5,17.1-2.5,25.5-9c1.2-0.9,2.3-2,3.2-3.3c4.3-3.8,7.7-8.4,10.4-13.9c0.7-1.6,1.2-3.3,1.6-4.9l8-26.1
	c68.6-7.3,130-32.3,184.1-75.1l27.9,14.7c5.6,3,11.8,4.4,18.3,4.1c9.7,1.9,19.2-0.8,28.7-8.2c3-2.3,5.3-5,7.2-8.2
	c3.6-4.3,6-11.1,7.2-20.4c0.5-1.6,0.8-3.2,0.8-4.9c0.1-4.8-0.5-9.7-1.6-14.7c-0.7-2.3-1.7-4.7-3.2-7.3l-13.7-26.8
	c46.4-58.6,73.2-125.5,80.5-200.7v-0.8c1.1-13.2,1.6-26.5,1.6-40C900.1,438,899.1,422,897,406.4z"/>
<path class="st4" d="M398.8,350.9c0,3.1,168.5,58.8,173.8,60.9c0.2,0.1-0.2-0.1,0,0c98.1,38.8,196.3,38.6,293.4-1.4
	c-9-80.5-42.5-150.4-100.4-209.7c-9.8-9.9-19.9-19.1-30.4-27.7"/>
<path class="st4" d="M735.2,173c-15.5-13-32-24.5-49.4-34.3c-22.8-13-47-23.1-72.5-30.2c-25.3-6.8-51.6-10.9-78.9-12.2
	c-5.2,0-10.5,0-15.9,0c-13.5,0-26.7,0.5-39.9,1.6c-46.5,5.2-89.6,19-129.1,41.6c-17.3,9.9-34,21.3-50.2,34.3
	c-9.8,8.4-19.3,17.4-28.7,26.9c-14,14.5-26.5,29.4-37.5,44.9c-30.4,43.1-50,90.7-59,142.8c46.3-21.3,92.3-34.4,137.9-39.2
	c29.3-2.6,58.2-2.1,86.9,1.6"/>
<path class="st0" d="M789.4,137.1c1.5-2.1,2.5-4.5,3.2-7.3c1.1-4.5,1.7-9.1,1.6-13.9c0-1.7-0.3-3.6-0.8-5.7
	c-1.2-8.7-3.6-15.3-7.2-19.6c-1.8-3.1-4.2-5.8-7.2-8.2c-9.5-7.4-19-10.3-28.7-9c-6.6,0.3-12.7,1.9-18.3,4.9l0,0L686.6,102
	c-20.8-10.4-42.5-18.8-65.4-25.3l0,0c-20.4-5.3-41.4-9.1-63-11.4l-10.4-33.5c-0.4-1.7-1-3.3-1.6-4.9c-2.6-5.4-6.1-10.3-10.4-14.7
	c-1.7-1.6-3.8-3.3-6.4-4.9c-5-2.9-9.3-4.8-12.8-5.7c-5.1-1.8-10.4-2-15.9-0.8C492.6,2.5,485.6,6,480,11.4c-4.7,3.8-8.7,9-12,15.5
	c-0.6,1.4-1.2,2.8-1.6,4.1l-12,37.5c-37.4,6-72.7,17.4-106,34.3l-46.2-24.5l0,0c-5.6-3-11.8-4.6-18.3-4.9c-9.7-1.4-19.2,1.6-28.7,9
	c-3,2.3-5.6,5-8,8.2c-3.1,4.3-5.5,10.8-7.2,19.6c0,2.1,0,4,0,5.7c-0.1,4.8,0.5,9.4,1.6,13.9c0.6,2.8,1.4,5.2,2.4,7.3l15.1,29.4
	c-3.7,3.5-7.4,7.1-11.2,10.6l-0.8,0.8c-5.9,6.4-11.8,12.9-17.5,19.6c-39.7-36.9-79-35.8-118,3.3l-51.1,82.4
	c-20.5,20.5-30.3,41.2-29.5,62c-0.8,20.8,9,41.2,29.5,61.2l51.1,82.4c9.3,9.7,18.6,16.7,27.9,21.2v0.8l33.5,9
	c-1.5-11.3-2.9-23-4-35.1c-11.6-0.7-23.3-7-35.1-18.8l-82.1-82.4c-26-25.6-26-51.1,0-76.7l82.1-82.4c25.5-25.6,51.3-25.6,77.3,0
	l21.5,20.5c11-15.5,23.5-29.7,37.5-44.2c9.4-9.5,18.9-18.5,28.7-26.9l-26.3-51.4c-0.5-2.2-0.8-4.4-0.8-6.5c0.5-3.3,1.3-5.7,2.4-7.3
	c2.1-1.6,4.3-2.2,6.4-1.6c2.7-0.5,5-0.3,7.2,0.8l61.4,31.8c39.5-22.6,82.6-36.5,129.1-41.6l18.3-56.3c1.1-2.2,2.4-3.8,4-4.9
	c1.6-2.2,3.7-3.5,6.4-4.1c1.6,0.5,3.7,1.6,6.4,3.3c1.6,1.6,2.9,3.5,4,5.7l16.7,54.7c27.3,1.4,53.7,5.4,78.9,12.2
	c25.6,7.1,49.7,17.2,72.5,30.2l60.6-31c2.1-1.1,4.5-1.4,7.2-0.8c2.1-0.5,4.3,0,6.4,1.6c1.1,1.6,1.9,4.1,2.4,7.3
	c0,2.2-0.3,4.4-0.8,6.5L735.2,173c10.5,8.6,20.6,17.8,30.3,27.7c57.9,59.3,91.4,129.2,100.4,209.7l29.5-15.5
	c-11.1-83-47-155.6-107.6-217.9c-3.9-3.9-8.1-8-12.8-12.2L789.4,137.1z"/>
<path class="st0" d="M695.3,304.4c-0.7,3.9,2.7,14.4,8,20.4c5.8,6,12.5,9,19.9,9c8,0,15.8-2.2,20.6-8.2c6.4-6,8.1-13.6,8.1-21.2
	C751.9,304.4,723.5,347,695.3,304.4z"/>
<path class="st0" d="M562.6,389.7c8.6-20.5,14.7-40.9,18.3-61.2c7.9-48.4,1.8-96.8-18.3-145.2c-1.6-3.8-4.3-6.8-8-9
	c-3.7-1.6-7.7-1.6-12,0c-49.4,16.9-94.1,46.8-133.9,89.8c-0.7,0.9-1.3,2-1.6,3.3c-1.6,2.3-2.4,5-2.4,8.2v93.7c0,3.8,0.8,7.1,2.4,9.8
	c2.1,2.7,4.8,4.6,8,5.7c45.2,16.3,90.1,21.2,134.7,14.7c3.2,0,5.8-1.1,8-3.3C559.9,394.6,561.5,392.4,562.6,389.7"/>
</svg>
